<svg width="160" height="56" viewBox="0 0 160 56" fill="none" xmlns="http://www.w3.org/2000/svg">
<g clip-path="url(#clip0_1_806)">
<g clip-path="url(#clip1_1_806)">
<path d="M10.1396 27.9887C10.1396 24.4854 13.0578 22.0938 17.4526 22.0938C18.9462 22.099 20.4234 22.3969 21.7953 22.9696L21.1352 24.7381C20.0125 24.2349 18.7935 23.9652 17.5568 23.9465C14.5865 23.9465 13.0578 25.4623 13.0578 27.9887C12.9951 28.4889 13.0397 28.9963 13.1888 29.479C13.3379 29.9616 13.5884 30.4092 13.9244 30.7935C14.2604 31.1779 14.6748 31.4907 15.1415 31.7123C15.6081 31.934 16.117 32.0597 16.6362 32.0816C17.4794 32.1072 18.305 31.8446 18.9687 31.3396C19.6324 30.8347 20.0918 30.1196 20.2667 29.3193H16.9662V27.4161H22.9765V33.6985H21.031V30.852C20.6767 31.8022 20.0151 32.6158 19.1447 33.1713C18.2744 33.7268 17.2421 33.9944 16.2019 33.9343C15.3986 33.9389 14.6024 33.7877 13.8602 33.4897C13.118 33.1917 12.4447 32.7529 11.8799 32.199C11.3151 31.645 10.8702 30.9872 10.5713 30.2642C10.2725 29.5412 10.1257 28.7676 10.1396 27.9887Z" fill="#030D0D"/>
<path d="M47.5729 28.8636C47.3615 30.4771 47.4497 32.1142 47.8334 33.6975H45.0541C44.7668 32.3807 44.6617 31.0327 44.7415 29.6889H28.3088V33.6975H25.877V22.2949H42.2053C45.7837 22.2949 47.7292 23.5245 47.7292 25.9667C47.7495 26.6004 47.5597 27.2238 47.1876 27.7452C46.8156 28.2666 46.2809 28.6586 45.6621 28.8636H47.5729ZM28.3088 24.0971V27.8531H41.9622C44.0814 27.8531 45.141 27.3141 45.141 25.933C45.141 24.5519 44.1682 24.0634 42.0316 24.0634L28.3088 24.0971Z" fill="#030D0D"/>
<path d="M50.2129 27.9885C50.2129 24.4178 53.1138 22.043 57.3001 22.043C61.4864 22.043 64.4047 24.4852 64.4047 27.9885C64.4047 31.4918 61.4691 33.934 57.3001 33.934C53.1312 33.934 50.2129 31.5592 50.2129 27.9885ZM61.7817 27.9885C61.7924 27.4293 61.6803 26.8743 61.4527 26.3603C61.2251 25.8464 60.8873 25.3853 60.4617 25.0077C60.0362 24.6301 59.5326 24.3447 58.9845 24.1704C58.4364 23.9961 57.8563 23.9369 57.2827 23.9967C56.7185 23.9612 56.1526 24.0383 55.6203 24.2233C55.088 24.4082 54.6005 24.6971 54.1879 25.072C53.7753 25.447 53.4464 25.9 53.2215 26.4031C52.9967 26.9062 52.8807 27.4486 52.8807 27.9969C52.8807 28.5452 52.9967 29.0877 53.2215 29.5908C53.4464 30.0939 53.7753 30.5469 54.1879 30.9218C54.6005 31.2967 55.088 31.5856 55.6203 31.7706C56.1526 31.9555 56.7185 32.0326 57.2827 31.9971C57.8577 32.0572 58.4394 31.9975 58.9887 31.8222C59.5381 31.6469 60.0425 31.36 60.4684 30.9806C60.8942 30.6011 61.2316 30.138 61.4581 29.622C61.6846 29.106 61.7949 28.5491 61.7817 27.9885Z" fill="#030D0D"/>
<path d="M68.3823 22.2949L71.8564 30.969L75.3306 22.2949H77.7451L81.2192 30.8679L82.3309 27.4994H84.8323L82.8868 33.7312H79.6211L76.5986 25.4951L73.524 33.6975H70.2062L65.7246 22.2949H68.3823Z" fill="#030D0D"/>
<path d="M84.0507 22.2949H99.389L98.451 24.2655H92.3191V33.6975H89.8178V24.2655H83.3906L84.0507 22.2949Z" fill="#030D0D"/>
<path d="M105.47 22.2949L110.889 33.6975H108.162L107.05 31.2216H100.797L99.5985 33.7312H96.8887L102.308 22.2949H105.47ZM106.321 29.3858L103.941 23.8445L101.509 29.3858H106.321Z" fill="#030D0D"/>
<path d="M113.652 31.0371C115.011 31.7024 116.508 32.0594 118.029 32.0813C119.975 32.0813 121.017 31.5086 121.017 30.717C121.017 28.5612 113.253 29.0328 113.253 25.1926C113.253 23.2893 115.198 22.043 118.325 22.043C120.02 22.0451 121.698 22.3773 123.258 23.0199L122.563 24.8726C121.234 24.2989 119.797 23.9951 118.342 23.9799C116.605 23.9799 115.91 24.401 115.91 25.1589C115.91 27.4158 123.64 27.1632 123.64 30.8181C123.64 32.6708 121.59 33.9845 118.064 33.9845C116.307 33.986 114.571 33.6182 112.975 32.9066L113.652 31.0371Z" fill="#030D0D"/>
<path d="M129.025 22.2949V27.0951H140.924L146.239 22.2949H149.487L143.807 27.3478L149.974 33.647H146.83L142.157 28.8468H129.042V33.6638H126.523V22.2949H129.025Z" fill="#030D0D"/>
<path d="M57.3001 29.3706C58.1443 29.3706 58.8287 28.707 58.8287 27.8884C58.8287 27.0698 58.1443 26.4062 57.3001 26.4062C56.4559 26.4062 55.7715 27.0698 55.7715 27.8884C55.7715 28.707 56.4559 29.3706 57.3001 29.3706Z" fill="#030D0D"/>
</g>
</g>
<defs>
<clipPath id="clip0_1_806">
<rect width="160" height="56" fill="white"/>
</clipPath>
<clipPath id="clip1_1_806">
<rect width="140" height="12" fill="white" transform="translate(10 22)"/>
</clipPath>
</defs>
</svg>
