<svg width="140" height="48" viewBox="0 0 140 48" fill="none" xmlns="http://www.w3.org/2000/svg">
<g clip-path="url(#clip0_1_820)">
<path d="M0.139575 23.9887C0.139575 20.4854 3.05784 18.0938 7.45261 18.0938C8.94624 18.099 10.4234 18.3969 11.7953 18.9696L11.1352 20.7381C10.0125 20.2349 8.79353 19.9652 7.55683 19.9465C4.58646 19.9465 3.05784 21.4623 3.05784 23.9887C2.99509 24.4889 3.03968 24.9963 3.1888 25.479C3.33793 25.9616 3.58837 26.4092 3.9244 26.7935C4.26043 27.1779 4.67479 27.4907 5.14146 27.7123C5.60813 27.934 6.11703 28.0597 6.63619 28.0816C7.47938 28.1072 8.30504 27.8446 8.96871 27.3396C9.63239 26.8347 10.0918 26.1196 10.2667 25.3193H6.96623V23.4161H12.9765V29.6985H11.031V26.852C10.6767 27.8022 10.0151 28.6158 9.14471 29.1713C8.27437 29.7268 7.24206 29.9944 6.20192 29.9343C5.3986 29.9389 4.60243 29.7877 3.86021 29.4897C3.118 29.1917 2.4447 28.7529 1.8799 28.199C1.3151 27.645 0.870196 26.9872 0.57133 26.2642C0.272465 25.5412 0.12567 24.7676 0.139575 23.9887Z" fill="#030D0D"/>
<path d="M37.5729 24.8636C37.3615 26.4771 37.4497 28.1142 37.8334 29.6975H35.0541C34.7668 28.3807 34.6617 27.0327 34.7415 25.6889H18.3088V29.6975H15.877V18.2949H32.2053C35.7837 18.2949 37.7292 19.5245 37.7292 21.9667C37.7495 22.6004 37.5597 23.2238 37.1876 23.7452C36.8156 24.2666 36.2809 24.6586 35.6621 24.8636H37.5729ZM18.3088 20.0971V23.8531H31.9622C34.0814 23.8531 35.141 23.3141 35.141 21.933C35.141 20.5519 34.1682 20.0634 32.0316 20.0634L18.3088 20.0971Z" fill="#030D0D"/>
<path d="M40.2129 23.9885C40.2129 20.4178 43.1138 18.043 47.3001 18.043C51.4864 18.043 54.4047 20.4852 54.4047 23.9885C54.4047 27.4918 51.4691 29.934 47.3001 29.934C43.1312 29.934 40.2129 27.5592 40.2129 23.9885ZM51.7817 23.9885C51.7924 23.4293 51.6803 22.8743 51.4527 22.3603C51.2251 21.8464 50.8873 21.3853 50.4617 21.0077C50.0362 20.6301 49.5326 20.3447 48.9845 20.1704C48.4364 19.9961 47.8563 19.9369 47.2827 19.9967C46.7185 19.9612 46.1526 20.0383 45.6203 20.2233C45.088 20.4082 44.6005 20.6971 44.1879 21.072C43.7753 21.447 43.4464 21.9 43.2215 22.4031C42.9967 22.9062 42.8807 23.4486 42.8807 23.9969C42.8807 24.5452 42.9967 25.0877 43.2215 25.5908C43.4464 26.0939 43.7753 26.5469 44.1879 26.9218C44.6005 27.2967 45.088 27.5856 45.6203 27.7706C46.1526 27.9555 46.7185 28.0326 47.2827 27.9971C47.8577 28.0572 48.4394 27.9975 48.9887 27.8222C49.5381 27.6469 50.0425 27.36 50.4684 26.9806C50.8942 26.6011 51.2316 26.138 51.4581 25.622C51.6846 25.106 51.7949 24.5491 51.7817 23.9885Z" fill="#030D0D"/>
<path d="M58.3823 18.2949L61.8564 26.969L65.3306 18.2949H67.7451L71.2192 26.8679L72.3309 23.4994H74.8323L72.8868 29.7312H69.6211L66.5986 21.4951L63.524 29.6975H60.2062L55.7246 18.2949H58.3823Z" fill="#030D0D"/>
<path d="M74.0507 18.2949H89.389L88.451 20.2655H82.3191V29.6975H79.8178V20.2655H73.3906L74.0507 18.2949Z" fill="#030D0D"/>
<path d="M95.4698 18.2949L100.889 29.6975H98.1622L97.0505 27.2216H90.7971L89.5985 29.7312H86.8887L92.3083 18.2949H95.4698ZM96.3209 25.3858L93.9411 19.8445L91.5093 25.3858H96.3209Z" fill="#030D0D"/>
<path d="M103.652 27.0371C105.011 27.7024 106.508 28.0594 108.029 28.0813C109.975 28.0813 111.017 27.5086 111.017 26.717C111.017 24.5612 103.253 25.0328 103.253 21.1926C103.253 19.2893 105.198 18.043 108.325 18.043C110.02 18.0451 111.698 18.3773 113.258 19.0199L112.563 20.8726C111.234 20.2989 109.797 19.9951 108.342 19.9799C106.605 19.9799 105.91 20.401 105.91 21.1589C105.91 23.4158 113.64 23.1632 113.64 26.8181C113.64 28.6708 111.59 29.9845 108.064 29.9845C106.307 29.986 104.571 29.6182 102.975 28.9066L103.652 27.0371Z" fill="#030D0D"/>
<path d="M119.025 18.2949V23.0951H130.924L136.239 18.2949H139.487L133.807 23.3478L139.974 29.647H136.83L132.157 24.8468H119.042V29.6638H116.523V18.2949H119.025Z" fill="#030D0D"/>
<path d="M47.3001 25.3706C48.1443 25.3706 48.8287 24.707 48.8287 23.8884C48.8287 23.0698 48.1443 22.4062 47.3001 22.4062C46.4559 22.4062 45.7715 23.0698 45.7715 23.8884C45.7715 24.707 46.4559 25.3706 47.3001 25.3706Z" fill="#030D0D"/>
</g>
<defs>
<clipPath id="clip0_1_820">
<rect width="140" height="12" fill="white" transform="translate(0 18)"/>
</clipPath>
</defs>
</svg>
