<svg width="160" height="56" viewBox="0 0 160 56" fill="none" xmlns="http://www.w3.org/2000/svg">
<g clip-path="url(#clip0_1_847)">
<path d="M52.04 35H55.5V21H52.04V26.3H46.86V21H43.42V35H46.86V29.46H52.04V35ZM61.1023 35.14C62.4823 35.14 63.7823 34.58 64.6223 33.74L64.6823 35H67.5023V28.58C67.5023 25.96 65.7823 24.46 62.7223 24.46C61.0623 24.46 59.8423 24.74 58.2623 25.46L59.0423 27.72C60.2623 27.2 61.2023 26.94 62.2823 26.94C63.8223 26.94 64.5023 27.42 64.5023 28.52V28.78C63.6623 28.56 62.8823 28.46 62.0823 28.46C59.2823 28.46 57.5623 29.76 57.5623 31.92C57.5623 33.84 58.9623 35.14 61.1023 35.14ZM60.7023 31.76C60.7023 30.96 61.3223 30.54 62.5023 30.54C63.0823 30.54 63.7823 30.66 64.5423 30.88C64.4423 32.02 63.4623 32.88 62.1023 32.88C61.1823 32.88 60.7023 32.46 60.7023 31.76ZM69.9402 35H75.8602C77.9802 35 79.4002 33.84 79.4002 32.12C79.4002 31 78.7602 30 77.7802 29.62C78.5802 29.1 79.0202 28.26 79.0202 27.32C79.0202 25.72 77.7202 24.68 75.6802 24.68H69.9402V35ZM73.0002 32.9V30.76H75.1002C75.9402 30.76 76.3402 31.14 76.3402 31.84C76.3402 32.52 75.9402 32.9 75.1002 32.9H73.0002ZM73.0002 28.78V26.74H74.9202C75.7202 26.74 76.1202 27.12 76.1202 27.76C76.1202 28.42 75.7202 28.78 74.9202 28.78H73.0002ZM86.4102 35.26C88.2302 35.26 89.8502 34.72 91.0102 33.8L89.7502 31.76C88.8702 32.4 87.8502 32.78 86.6502 32.78C85.1302 32.78 84.0502 32.1 83.7302 31.02H91.4302C92.0302 27.3 89.7502 24.42 86.0902 24.42C82.8302 24.42 80.5902 26.66 80.5902 29.86C80.5902 33.08 82.8702 35.26 86.4102 35.26ZM83.6902 28.94C83.9302 27.7 84.8702 26.92 86.1102 26.92C87.4102 26.92 88.2702 27.74 88.5302 28.94H83.6902ZM100.017 35.24C102.837 35.24 104.857 33.02 104.857 29.84C104.857 26.66 102.837 24.46 100.017 24.46C98.5172 24.46 97.2572 25.1 96.4172 26.18L96.3772 24.68H93.3972V39.6H96.6572V33.9C97.4772 34.76 98.6372 35.24 100.017 35.24ZM96.5972 29.84C96.5972 28.3 97.6572 27.22 99.1172 27.22C100.597 27.22 101.637 28.28 101.637 29.84C101.637 31.4 100.597 32.46 99.1172 32.46C97.6572 32.46 96.5972 31.4 96.5972 29.84ZM112.41 35H115.91L112.49 29.78L115.73 24.68H112.27L111.19 26.42L110.51 27.58L109.83 26.42L108.73 24.68H105.29L108.55 29.78L105.11 35H108.59L109.71 33.28L110.51 31.96L111.31 33.28L112.41 35Z" fill="#11A6A6"/>
</g>
<defs>
<clipPath id="clip0_1_847">
<rect width="160" height="56" rx="28" fill="white"/>
</clipPath>
</defs>
</svg>
